<svg width="115" height="71" viewBox="0 0 115 71" fill="none" xmlns="http://www.w3.org/2000/svg">
<path fill-rule="evenodd" clip-rule="evenodd" d="M25.4746 13.206L10.0457 28.6356L16.0252 34.6138L25.4753 25.1644L34.9246 34.6138L40.9042 28.6356L25.4746 13.206ZM10.0457 43.5833L25.4746 59.0129L40.9035 43.5833L25.4746 28.1544L10.0457 43.5833ZM52.5665 27.0087C53.3826 27.0087 54.0219 27.1652 54.4849 27.4781C54.9487 27.7904 55.2814 28.2344 55.4822 28.8102C55.6831 29.3853 55.7839 30.0697 55.7839 30.8626V31.6837H54.5773V30.8964C54.5773 30.3044 54.5293 29.7955 54.4349 29.3712C54.3398 28.9469 54.1473 28.6171 53.857 28.3824C53.5659 28.1477 53.1423 28.0307 52.5834 28.0307C51.9695 28.0307 51.5078 28.1569 51.2013 28.4078C50.8933 28.6594 50.6867 29.0139 50.581 29.472C50.4753 29.9301 50.4217 30.4602 50.4217 31.0635V36.8443C50.4217 37.5139 50.4859 38.0728 50.6149 38.5196C50.7424 38.9665 50.9637 39.3012 51.2767 39.5254C51.5896 39.7481 52.0252 39.8594 52.5834 39.8594C53.1529 39.8594 53.5807 39.7375 53.8654 39.4915C54.1502 39.2456 54.3398 38.9023 54.4349 38.4611C54.5293 38.0199 54.5773 37.5033 54.5773 36.9112V36.0232H55.7839V36.8274C55.7839 37.621 55.6916 38.3216 55.5069 38.9298C55.323 39.5388 54.9987 40.0166 54.535 40.3627C54.0719 40.7087 53.415 40.8821 52.5665 40.8821C51.6509 40.8821 50.9447 40.6925 50.4471 40.3126C49.9495 39.9327 49.6063 39.4218 49.4167 38.779C49.2264 38.1369 49.1319 37.425 49.1319 36.6427V31.2481C49.1319 30.4101 49.2292 29.6729 49.4251 29.0365C49.6204 28.3993 49.97 27.9031 50.4725 27.5451C50.975 27.1877 51.6728 27.0087 52.5665 27.0087ZM88.3991 43.2541L89.3633 44.7018V43.2541H89.6544V45.1768H89.3633L88.3991 43.7291V45.1768H88.108V43.2541H88.3991ZM87.1961 45.177H86.905V43.2543H87.1961V45.177ZM90.5657 45.1768H91.7879V44.9407H90.8568V44.3198H91.7054V44.0893H90.8568V43.4902H91.7879V43.2541H90.5657V45.1768ZM94.1615 44.0783H95.0926V43.2543H95.3837V45.177H95.0926V44.3172H94.1615V45.177H93.8704V43.2543H94.1615V44.0783ZM96.295 45.1768H97.5171V44.9407H96.5861V44.3198H97.4346V44.0893H96.5861V43.4902H97.5171V43.2541H96.295V45.1768ZM98.6766 44.1822H99.0311C99.1629 44.1822 99.2595 44.1505 99.3208 44.0864C99.3821 44.0222 99.4131 43.9391 99.4131 43.8369C99.4131 43.734 99.3828 43.6522 99.3222 43.5909C99.2616 43.5289 99.1636 43.4985 99.0283 43.4985H98.6766V44.1822ZM99.7125 43.8284C99.7125 43.9475 99.6808 44.0554 99.6174 44.1526C99.554 44.2499 99.456 44.319 99.3221 44.3612L99.7316 45.1767H99.394L99.0197 44.4021H98.6765V45.1767H98.3854V43.2547H99.0472C99.1994 43.2547 99.3242 43.2801 99.4229 43.3308C99.5201 43.3823 99.5934 43.4513 99.6406 43.5387C99.6886 43.6254 99.7125 43.722 99.7125 43.8284ZM100.577 45.1768H101.799V44.9407H100.868V44.3198H101.717V44.0893H100.868V43.4902H101.799V43.2541H100.577V45.1768ZM58.2894 38.4942C58.1717 38.065 58.1132 37.5646 58.1132 36.9951V30.8457C58.1132 30.2762 58.1717 29.7793 58.2894 29.3543C58.4064 28.9307 58.6249 28.6037 58.9428 28.3746C59.2613 28.1456 59.7216 28.0307 60.3249 28.0307C60.9169 28.0307 61.3694 28.1456 61.6816 28.3746C61.9946 28.6037 62.2095 28.9307 62.3272 29.3543C62.4449 29.7793 62.5034 30.2762 62.5034 30.8457V36.9951C62.5034 37.5646 62.4449 38.065 62.3272 38.4942C62.2095 38.9242 61.9946 39.2597 61.6816 39.5C61.3694 39.7403 60.9169 39.8595 60.3249 39.8595C59.7216 39.8595 59.2613 39.7403 58.9428 39.5C58.6249 39.2597 58.4064 38.9242 58.2894 38.4942ZM62.4187 40.3458C62.9219 39.9884 63.2764 39.5 63.4829 38.8798C63.6894 38.2602 63.7938 37.542 63.7938 36.7266V31.0804C63.7938 30.2544 63.6866 29.5362 63.4745 28.9272C63.263 28.3183 62.9022 27.8467 62.394 27.5113C61.8858 27.1758 61.1958 27.0087 60.3247 27.0087C59.4423 27.0087 58.7466 27.1758 58.2392 27.5113C57.7303 27.8467 57.3673 28.3183 57.1496 28.9272C56.9318 29.5362 56.8232 30.2544 56.8232 31.0804V36.7104C56.8232 37.5258 56.9254 38.249 57.1326 38.8798C57.3391 39.5106 57.6965 40.0025 58.2054 40.3549C58.7135 40.7066 59.4197 40.8821 60.3247 40.8821C61.2184 40.8821 61.9162 40.7038 62.4187 40.3458ZM69.004 40.7149L66.4399 29.9243L66.1721 40.7149H65.1163L65.4517 27.1431H66.7246L69.4057 38.9218L72.1368 27.1431H73.4104L73.7452 40.7149H72.6894L72.4216 29.9074L69.8251 40.7149H69.004ZM76.6109 33.3424V28.098H78.2524C78.8565 28.098 79.3223 28.1734 79.6515 28.3242C79.9806 28.475 80.2125 28.7436 80.3471 29.1284C80.481 29.5132 80.548 30.0531 80.548 30.7452C80.548 31.3929 80.4705 31.9074 80.314 32.2866C80.1568 32.6665 79.9087 32.9379 79.5676 33.0993C79.2272 33.2614 78.7832 33.3424 78.2362 33.3424H76.6109ZM80.4725 33.8119C80.9468 33.4877 81.2879 33.0549 81.4952 32.5129C81.7017 31.9716 81.8046 31.3824 81.8046 30.7453C81.8046 30.0193 81.7066 29.3885 81.5114 28.8522C81.3161 28.3158 80.9835 27.8964 80.5148 27.5955C80.0454 27.2938 79.4033 27.143 78.5878 27.143H75.3366V40.7147H76.6109V34.2975H78.604C79.3751 34.2975 79.9981 34.1354 80.4725 33.8119ZM84.8882 28.8345L83.4476 36.1568H86.3295L84.8882 28.8345ZM85.5423 27.1431L88.4243 40.7149H87.1669L86.4966 37.0788H83.263L82.5765 40.7149H81.336L84.2011 27.1431H85.5423ZM94.6399 37.6821L90.3166 27.1431H89.3954V40.7149H90.5012V30.0589L94.8407 40.7149H95.7457V27.1431H94.6399V37.6821ZM100.839 40.7147H99.5988V36.2068L96.5322 27.143H97.7719L100.218 34.6823L102.565 27.143H103.821L100.839 36.2068V40.7147ZM49.9615 44.1822L49.5083 43.2547H49.1791L49.8163 44.4677V45.1767H50.1074V44.4677L50.7389 43.2547H50.4125L49.9615 44.1822ZM52.6055 44.8607C52.7028 44.8022 52.7796 44.7183 52.8346 44.6083C52.8896 44.4984 52.9171 44.3673 52.9171 44.2151C52.9171 44.0642 52.8896 43.9324 52.8346 43.8232C52.7796 43.7125 52.7028 43.6287 52.6055 43.5702C52.5076 43.5117 52.3927 43.4821 52.2609 43.4821C52.1291 43.4821 52.0135 43.5117 51.9141 43.5702C51.8162 43.6287 51.7393 43.7125 51.6851 43.8232C51.6315 43.9324 51.6047 44.0642 51.6047 44.2151C51.6047 44.3673 51.6315 44.4984 51.6851 44.6083C51.7393 44.7183 51.8162 44.8022 51.9141 44.8607C52.0135 44.9192 52.1291 44.9488 52.2609 44.9488C52.3927 44.9488 52.5076 44.9192 52.6055 44.8607ZM52.261 43.2213C52.4513 43.2213 52.6176 43.2636 52.7607 43.3475C52.9038 43.4321 53.0151 43.5483 53.0941 43.6978C53.1737 43.8472 53.2139 44.0199 53.2139 44.2151C53.2139 44.4117 53.1737 44.5844 53.0941 44.7338C53.0151 44.8825 52.9038 44.9995 52.7607 45.0834C52.6176 45.168 52.4513 45.2103 52.261 45.2103C52.0707 45.2103 51.9037 45.168 51.7613 45.0834C51.6175 44.9995 51.5062 44.8825 51.4258 44.7338C51.3455 44.5844 51.3053 44.4117 51.3053 44.2151C51.3053 44.0199 51.3455 43.8472 51.4258 43.6978C51.5062 43.5483 51.6175 43.4321 51.7613 43.3475C51.9037 43.2636 52.0707 43.2213 52.261 43.2213ZM55.2291 44.4575C55.2291 44.6252 55.1889 44.7493 55.1086 44.8275C55.0282 44.9072 54.9204 44.9459 54.7843 44.9459C54.6469 44.9459 54.5384 44.9072 54.4573 44.8275C54.377 44.7493 54.3361 44.6252 54.3361 44.4575V43.2544H54.045V44.4547C54.045 44.6267 54.0781 44.7683 54.143 44.8804C54.2078 44.9917 54.2959 45.0749 54.4066 45.1285C54.5172 45.1827 54.6413 45.2095 54.7787 45.2095C54.9147 45.2095 55.0381 45.1827 55.1508 45.1285C55.2636 45.0749 55.3531 44.9917 55.4201 44.8804C55.487 44.7683 55.5202 44.6267 55.5202 44.4547V43.2544H55.2291V44.4575ZM56.707 44.1821H57.0615C57.1933 44.1821 57.2898 44.1504 57.3511 44.0863C57.4125 44.0222 57.4435 43.939 57.4435 43.8368C57.4435 43.7339 57.4132 43.6521 57.3526 43.5908C57.2919 43.5288 57.194 43.4985 57.0587 43.4985H56.707V44.1821ZM57.7429 43.8285C57.7429 43.9476 57.7112 44.0554 57.6478 44.1527C57.5843 44.2499 57.4864 44.319 57.3524 44.3613L57.7619 45.1768H57.4243L57.0501 44.4022H56.7068V45.1768H56.4158V43.2548H57.0776C57.2298 43.2548 57.3546 43.2801 57.4532 43.3309C57.5505 43.3823 57.6238 43.4514 57.671 43.5388C57.7189 43.6255 57.7429 43.722 57.7429 43.8285ZM60.6756 43.4822C60.8165 43.4822 60.9293 43.5153 61.0132 43.5816C61.0977 43.6464 61.1527 43.7352 61.1788 43.848H61.5023C61.4642 43.6493 61.3733 43.4963 61.2302 43.3857C61.0879 43.2764 60.9039 43.2214 60.6784 43.2214C60.4881 43.2214 60.3239 43.263 60.1857 43.3476C60.0469 43.4322 59.9405 43.5485 59.8657 43.6979C59.7903 43.8473 59.753 44.0207 59.753 44.218C59.753 44.414 59.7903 44.5866 59.8657 44.7361C59.9405 44.8848 60.0469 45.0011 60.1857 45.0842C60.3239 45.1681 60.4881 45.2097 60.6784 45.2097C60.9039 45.2097 61.0879 45.1554 61.2302 45.0476C61.3733 44.9398 61.4642 44.7903 61.5023 44.6H61.1788C61.1527 44.7079 61.0977 44.7932 61.0132 44.8552C60.9293 44.9179 60.8165 44.9489 60.6756 44.9489C60.4839 44.9489 60.3316 44.8834 60.2203 44.7537C60.1082 44.624 60.0525 44.445 60.0525 44.218C60.0525 43.9897 60.1082 43.8092 60.2203 43.6782C60.3316 43.5478 60.4839 43.4822 60.6756 43.4822ZM63.5776 44.8607C63.6748 44.8022 63.7516 44.7183 63.8066 44.6083C63.8616 44.4984 63.8891 44.3673 63.8891 44.2151C63.8891 44.0642 63.8616 43.9324 63.8066 43.8232C63.7516 43.7125 63.6748 43.6287 63.5776 43.5702C63.4796 43.5117 63.3647 43.4821 63.2329 43.4821C63.1011 43.4821 62.9855 43.5117 62.8861 43.5702C62.7882 43.6287 62.7114 43.7125 62.6571 43.8232C62.6035 43.9324 62.5767 44.0642 62.5767 44.2151C62.5767 44.3673 62.6035 44.4984 62.6571 44.6083C62.7114 44.7183 62.7882 44.8022 62.8861 44.8607C62.9855 44.9192 63.1011 44.9488 63.2329 44.9488C63.3647 44.9488 63.4796 44.9192 63.5776 44.8607ZM63.2328 43.2213C63.4231 43.2213 63.5895 43.2636 63.7325 43.3475C63.8756 43.4321 63.987 43.5483 64.0659 43.6978C64.1456 43.8472 64.1857 44.0199 64.1857 44.2151C64.1857 44.4117 64.1456 44.5844 64.0659 44.7338C63.987 44.8825 63.8756 44.9995 63.7325 45.0834C63.5895 45.168 63.4231 45.2103 63.2328 45.2103C63.0425 45.2103 62.8755 45.168 62.7331 45.0834C62.5893 44.9995 62.478 44.8825 62.3976 44.7338C62.3173 44.5844 62.2771 44.4117 62.2771 44.2151C62.2771 44.0199 62.3173 43.8472 62.3976 43.6978C62.478 43.5483 62.5893 43.4321 62.7331 43.3475C62.8755 43.2636 63.0425 43.2213 63.2328 43.2213ZM66.0264 44.5339L65.3751 43.2547H65.0319V45.1767H65.323V43.7593L65.9136 44.9018H66.1385L66.7263 43.7565V45.1767H67.0173V43.2547H66.6748L66.0264 44.5339ZM68.5888 44.1637C68.7262 44.1637 68.8249 44.1334 68.8841 44.0742C68.9433 44.0143 68.9736 43.934 68.9736 43.8311C68.9736 43.7246 68.9433 43.6422 68.8841 43.583C68.8249 43.5231 68.7262 43.4935 68.5888 43.4935H68.2209V44.1637H68.5888ZM68.6029 43.2545C68.7523 43.2545 68.8771 43.2792 68.9764 43.3292C69.0751 43.3807 69.1484 43.4483 69.197 43.5357C69.2457 43.6224 69.2703 43.7211 69.2703 43.831C69.2703 43.9354 69.2471 44.0305 69.1999 44.1179C69.1533 44.2053 69.08 44.2744 68.9821 44.3251C68.8827 44.3766 68.7558 44.4026 68.6029 44.4026H68.2209V45.1765H67.9298V43.2545H68.6029ZM70.2887 44.4761L70.5988 43.6007L70.9097 44.4761H70.2887ZM70.4424 43.2548L69.734 45.1768H70.0413L70.2062 44.7074H70.9914L71.1563 45.1768H71.4643L70.7609 43.2548H70.4424ZM72.5458 43.2542L73.51 44.7019V43.2542H73.8011V45.1769H73.51L72.5458 43.7292V45.1769H72.2547V43.2542H72.5458ZM75.3478 44.1822L74.8946 43.2547H74.5655L75.2026 44.4677V45.1767H75.4937V44.4677L76.1252 43.2547H75.7989L75.3478 44.1822ZM78.5532 43.4904H77.9844V43.2543H79.4095V43.4904H78.8443V45.177H78.5532V43.4904ZM80.4261 44.4761L80.7362 43.6007L81.047 44.4761H80.4261ZM80.5797 43.2548L79.8713 45.1768H80.1786L80.3435 44.7074H81.1287L81.2936 45.1768H81.6016L80.8982 43.2548H80.5797ZM83.7351 44.3584H83.2135V44.1336H84.029V45.1767H83.7626L83.7379 44.8941C83.6738 44.9941 83.5934 45.0724 83.4961 45.1274C83.3996 45.1823 83.2727 45.2098 83.117 45.2098C82.9358 45.2098 82.7779 45.1682 82.6419 45.0858C82.5066 45.004 82.4016 44.8884 82.3262 44.7404C82.2514 44.5917 82.2141 44.419 82.2141 44.221C82.2141 44.025 82.2522 43.8517 82.329 43.7015C82.4058 43.5514 82.5158 43.4337 82.6574 43.3484C82.7991 43.2638 82.9668 43.2216 83.1614 43.2216C83.3806 43.2216 83.5638 43.2744 83.7104 43.3801C83.857 43.4873 83.9521 43.6332 83.9958 43.8199H83.6667C83.6378 43.7177 83.58 43.6374 83.4933 43.5789C83.4073 43.5197 83.2967 43.4908 83.1614 43.4908C82.9605 43.4908 82.8019 43.5549 82.6863 43.6853C82.5707 43.815 82.5136 43.9947 82.5136 44.2238C82.5136 44.4529 82.57 44.6312 82.6835 44.7587C82.797 44.8877 82.9478 44.9519 83.1367 44.9519C83.327 44.9519 83.4701 44.8976 83.5666 44.789C83.6625 44.6812 83.7189 44.5381 83.7351 44.3584ZM85.1963 43.2544H84.9052V45.1771H86.0695V44.9459H85.1963V43.2544Z" fill="#9A9AB0"/>
</svg>
