<svg width="115" height="71" viewBox="0 0 115 71" fill="none" xmlns="http://www.w3.org/2000/svg">
<path fill-rule="evenodd" clip-rule="evenodd" d="M29.5426 28.6455C29.5426 31.9418 32.2145 34.6144 35.5116 34.6144C38.808 34.6144 41.4806 31.9418 41.4806 28.6455C41.4806 25.3484 38.808 22.6765 35.5116 22.6765C32.2145 22.6765 29.5426 25.3484 29.5426 28.6455ZM7.0481 35.8626C7.0481 24.1283 16.5602 14.6155 28.2945 14.6155C40.0288 14.6155 49.5408 24.1283 49.5408 35.8626C49.5408 47.5962 40.0288 57.109 28.2945 57.109C16.5602 57.109 7.0481 47.5962 7.0481 35.8626ZM58.3451 31.9134C57.5431 31.9134 56.8545 31.7414 56.28 31.3967C55.7049 31.0528 55.2623 30.5721 54.9522 29.9554C54.6421 29.3394 54.487 28.6262 54.487 27.8163C54.487 27.0072 54.6421 26.2918 54.9522 25.6716C55.2623 25.0514 55.7049 24.5672 56.28 24.219C56.8545 23.8715 57.5431 23.6974 58.3451 23.6974C59.2987 23.6974 60.0797 23.9336 60.6879 24.4065C61.2983 24.8794 61.6782 25.5433 61.8297 26.3983H60.2298C60.1304 25.9669 59.9218 25.6279 59.599 25.3826C59.2776 25.1367 58.8519 25.0133 58.3226 25.0133C57.5889 25.0133 57.0137 25.2628 56.5979 25.7625C56.1814 26.2615 55.9735 26.9466 55.9735 27.8163C55.9735 28.6868 56.1814 29.3697 56.5979 29.8652C57.0137 30.3607 57.5889 30.6081 58.3226 30.6081C58.8519 30.6081 59.2776 30.4932 59.599 30.262C59.9218 30.0315 60.1304 29.7116 60.2298 29.3028H61.8297C61.6782 30.1203 61.2983 30.7596 60.6879 31.2205C60.0797 31.6822 59.2987 31.9134 58.3451 31.9134ZM65.7894 27.2714C65.4039 27.2714 65.0733 27.4138 64.797 27.6971C64.52 27.9812 64.3826 28.4026 64.3826 28.9623C64.3826 29.5226 64.52 29.944 64.797 30.2281C65.0733 30.5114 65.3996 30.6531 65.7788 30.6531C66.1566 30.6531 66.4857 30.5114 66.7656 30.2281C67.0454 29.944 67.1856 29.5226 67.1856 28.9623C67.1856 28.4026 67.0454 27.9812 66.7656 27.6971C66.4857 27.4138 66.1608 27.2714 65.7894 27.2714ZM65.7791 31.9132C65.2336 31.9132 64.7444 31.7885 64.3096 31.539C63.8733 31.2888 63.5293 30.9427 63.2763 30.5001C63.0226 30.0575 62.8964 29.5451 62.8964 28.9622C62.8964 28.38 63.0247 27.8677 63.2819 27.425C63.5392 26.9824 63.8853 26.6364 64.3201 26.3869C64.755 26.1367 65.2455 26.0119 65.7896 26.0119C66.3274 26.0119 66.813 26.1367 67.2486 26.3869C67.6835 26.6364 68.0274 26.9824 68.2804 27.425C68.5342 27.8677 68.661 28.38 68.661 28.9622C68.661 29.5451 68.5342 30.0575 68.2804 30.5001C68.0274 30.9427 67.6813 31.2888 67.243 31.539C66.8039 31.7885 66.3154 31.9132 65.7791 31.9132ZM76.9221 26.0123C76.5134 26.0123 76.1377 26.1025 75.7931 26.2843C75.4484 26.4662 75.1749 26.7121 74.9698 27.0223C74.6076 26.3492 73.9909 26.0123 73.1204 26.0123C72.7271 26.0123 72.3811 26.0933 72.0823 26.2561C71.7834 26.4189 71.5431 26.636 71.3612 26.9088L71.2372 26.1483H69.9544V31.7769H71.4071V28.8717C71.4071 28.3579 71.5262 27.9568 71.7644 27.6693C72.0033 27.3817 72.3148 27.2379 72.7011 27.2379C73.0937 27.2379 73.3847 27.3662 73.5743 27.6235C73.7639 27.8807 73.8577 28.2514 73.8577 28.7356V31.7769H75.311V28.8717C75.311 28.3579 75.4301 27.9568 75.6683 27.6693C75.9065 27.3817 76.2223 27.2379 76.6156 27.2379C77.0011 27.2379 77.2872 27.3662 77.4726 27.6235C77.658 27.8807 77.751 28.2514 77.751 28.7356V31.7769H79.2029V28.5996C79.2029 27.7524 79.0063 27.1089 78.613 26.6706C78.2197 26.2322 77.6559 26.0123 76.9221 26.0123ZM83.6177 30.6421C84.0786 30.6421 84.4606 30.4871 84.7637 30.177C85.0667 29.8668 85.2183 29.4658 85.2183 28.9738C85.2183 28.4819 85.0667 28.0773 84.7637 27.7595C84.4606 27.4423 84.0786 27.283 83.6177 27.283C83.1483 27.283 82.7641 27.4402 82.4653 27.7538C82.1665 28.0682 82.0178 28.4706 82.0178 28.9626C82.0178 29.4545 82.1665 29.857 82.4653 30.1713C82.7641 30.485 83.1483 30.6421 83.6177 30.6421ZM85.3423 26.3979C85.7581 26.6552 86.0872 27.0069 86.3297 27.453C86.5714 27.8999 86.6927 28.4066 86.6927 28.974C86.6927 29.5414 86.5714 30.046 86.3297 30.4886C86.0872 30.9312 85.7581 31.2794 85.3423 31.5331C84.9257 31.7862 84.4535 31.913 83.9242 31.913C83.4999 31.913 83.1299 31.8341 82.8113 31.6748C82.4942 31.5162 82.2369 31.2928 82.0403 31.0052V34.2734H80.5877V26.1484H81.881L82.0403 26.954C82.2221 26.7045 82.4617 26.4853 82.7606 26.2957C83.0594 26.1068 83.4478 26.0124 83.9242 26.0124C84.4535 26.0124 84.9257 26.1407 85.3423 26.3979ZM91.2266 30.3698C90.9954 30.6418 90.6726 30.7786 90.2561 30.7786C89.9833 30.7786 89.7648 30.718 89.5978 30.5967C89.4315 30.4755 89.3483 30.3057 89.3483 30.0865C89.3483 29.8821 89.4315 29.7094 89.5978 29.5698C89.7648 29.4303 90.0404 29.3598 90.4266 29.3598H91.6636C91.603 29.7608 91.4571 30.0977 91.2266 30.3698ZM90.2681 28.4519C89.4505 28.4519 88.8373 28.6147 88.4293 28.9397C88.0205 29.2653 87.8161 29.6889 87.8161 30.2104C87.8161 30.5212 87.8922 30.8046 88.043 31.0618C88.1946 31.3191 88.425 31.5256 88.7358 31.6807C89.0453 31.8357 89.4435 31.9132 89.927 31.9132C90.3957 31.9132 90.7798 31.8146 91.0793 31.6179C91.3782 31.4213 91.6107 31.1718 91.7771 30.8687L91.9131 31.7772H93.15V28.3159C93.15 27.5822 92.9189 27.0148 92.4579 26.6131C91.9963 26.2128 91.3641 26.0119 90.5627 26.0119C90.094 26.0119 89.6697 26.0937 89.2919 26.2565C88.9135 26.4193 88.6048 26.6519 88.3665 26.9542C88.1283 27.2566 87.9902 27.6118 87.9521 28.0206H89.3709C89.4237 27.7485 89.5605 27.542 89.7797 27.4025C89.9989 27.2622 90.2561 27.1925 90.5514 27.1925C90.8763 27.1925 91.1491 27.2834 91.3683 27.4645C91.5882 27.6463 91.6974 27.9297 91.6974 28.3159V28.4519H90.2681ZM100.05 28.5997V31.777H98.5966V28.7358C98.5966 28.2516 98.4986 27.8808 98.3027 27.6236C98.1054 27.3663 97.7988 27.238 97.3829 27.238C96.9748 27.238 96.6394 27.3818 96.3786 27.6687C96.1178 27.9569 95.9867 28.3573 95.9867 28.8718V31.777H94.5348V26.1484H95.8169L95.9303 27.1013C96.1037 26.7686 96.356 26.5043 96.6852 26.307C97.0136 26.1104 97.4013 26.0124 97.8481 26.0124C98.5437 26.0124 99.085 26.2316 99.4713 26.67C99.8568 27.1091 100.05 27.7526 100.05 28.5997ZM103.25 31.4026L101.944 34.274H103.488L107.063 26.1483H105.519L103.874 30.1093L102.296 26.1483H100.719L102.909 31.4026H103.25ZM54.2826 37.4509H60.3771V38.6194H58.0498V45.3947H56.5979V38.6194H54.2826V37.4509ZM61.6821 42.0238C61.7575 41.6165 61.9316 41.3106 62.2036 41.1111C62.4764 40.9102 62.79 40.8094 63.1459 40.8094C63.5167 40.8094 63.8268 40.9201 64.0763 41.1386C64.3258 41.3592 64.4618 41.6538 64.4851 42.0238H61.6821ZM64.6099 39.9933C64.1863 39.7509 63.6978 39.6304 63.146 39.6304C62.5553 39.6304 62.0437 39.7565 61.6088 40.0103C61.1725 40.2633 60.8328 40.6171 60.5868 41.071C60.3408 41.5256 60.2182 42.0429 60.2182 42.6258C60.2182 43.2009 60.343 43.7077 60.5925 44.1468C60.8427 44.5859 61.1866 44.9256 61.625 45.168C62.0641 45.4105 62.5673 45.5317 63.1347 45.5317C63.5886 45.5317 63.9946 45.4471 64.3547 45.2808C64.7142 45.1145 65.0158 44.8861 65.2625 44.595C65.5085 44.3032 65.684 43.9797 65.7897 43.6245H64.3145C64.2166 43.8367 64.0672 44.0086 63.867 44.1411C63.6654 44.2729 63.418 44.3392 63.1234 44.3392C62.7294 44.3392 62.3954 44.2137 62.1191 43.9649C61.8428 43.7154 61.6898 43.3715 61.6595 42.9324H65.9377C65.9448 42.833 65.9511 42.74 65.9546 42.6491C65.9581 42.5581 65.9603 42.4714 65.9603 42.3876C65.9603 41.8724 65.8404 41.4058 65.6022 40.9857C65.3647 40.5664 65.0334 40.2358 64.6099 39.9933ZM69.2509 41.7637L70.6697 39.7663H72.2358L70.182 42.5799L72.2358 45.3949H70.6697L69.2509 43.3975L67.8216 45.3949H66.2668L68.3093 42.5799L66.2668 39.7663H67.8216L69.2509 41.7637ZM75.1745 38.2562H73.8925L73.7219 39.7666H72.757V40.9802H73.7219V43.4323C73.7219 44.166 73.8995 44.6762 74.2547 44.9631C74.6106 45.2507 75.0836 45.3951 75.6735 45.3951H76.6609V44.1575H75.9575C75.67 44.1575 75.4677 44.1068 75.3507 44.0046C75.233 43.9031 75.1745 43.7156 75.1745 43.4428V40.9802H76.6948V39.7666H75.1745V38.2562ZM80.6778 37.4509H82.1311V44.2593H85.6488V45.3947H80.6778V37.4509ZM90.3352 43.8451C90.0553 44.1299 89.7262 44.2715 89.3484 44.2715C88.9699 44.2715 88.6429 44.1299 88.3666 43.8451C88.0896 43.5618 87.9522 43.1403 87.9522 42.58C87.9522 42.0211 88.0896 41.5982 88.3666 41.3149C88.6429 41.0316 88.9735 40.8899 89.359 40.8899C89.7304 40.8899 90.0553 41.0316 90.3352 41.3149C90.615 41.5982 90.7552 42.0211 90.7552 42.58C90.7552 43.1403 90.615 43.5618 90.3352 43.8451ZM90.8182 40.0046C90.3826 39.7551 89.897 39.6304 89.3592 39.6304C88.8151 39.6304 88.3246 39.7551 87.8897 40.0046C87.4549 40.2534 87.1088 40.6002 86.8515 41.0421C86.5943 41.4854 86.466 41.9978 86.466 42.58C86.466 43.1636 86.5922 43.676 86.8459 44.1179C87.0989 44.5612 87.4429 44.9065 87.8791 45.1567C88.314 45.4063 88.8031 45.5317 89.3487 45.5317C89.885 45.5317 90.3735 45.4063 90.8125 45.1567C91.2509 44.9065 91.597 44.5612 91.85 44.1179C92.1038 43.676 92.2306 43.1636 92.2306 42.58C92.2306 41.9978 92.1038 41.4854 91.85 41.0421C91.597 40.6002 91.2531 40.2534 90.8182 40.0046ZM95.5556 42.6034C95.8509 42.6034 96.0948 42.5238 96.2879 42.3652C96.4803 42.2052 96.5769 41.9783 96.5769 41.6837C96.5769 41.389 96.4803 41.1621 96.2879 41.0021C96.0948 40.8442 95.8509 40.7646 95.5556 40.7646C95.2455 40.7646 94.996 40.8442 94.8064 41.0021C94.6175 41.1621 94.5231 41.389 94.5231 41.6837C94.5231 41.9783 94.6175 42.2052 94.8064 42.3652C94.996 42.5238 95.2455 42.6034 95.5556 42.6034ZM95.669 45.3495C95.3589 45.3262 95.0714 45.2931 94.8063 45.248C94.5872 45.3692 94.43 45.501 94.3355 45.6441C94.2411 45.7872 94.1939 45.9359 94.1939 46.0874C94.1939 46.3672 94.3243 46.5765 94.585 46.7168C94.8465 46.8571 95.1658 46.9275 95.5443 46.9275C95.9072 46.9275 96.2026 46.8528 96.4295 46.7055C96.6558 46.5582 96.7699 46.3588 96.7699 46.1093C96.7699 45.9056 96.6959 45.735 96.5486 45.599C96.4006 45.463 96.1074 45.3798 95.669 45.3495ZM94.3184 39.9027C94.6589 39.7209 95.0712 39.6299 95.5554 39.6299C95.8732 39.6299 96.1678 39.6758 96.4406 39.766H98.5741V40.6512L97.6092 40.7189C97.7607 41.0064 97.8361 41.3243 97.8361 41.6732C97.8361 42.0517 97.7452 42.3956 97.5641 42.705C97.3829 43.0151 97.12 43.2611 96.7747 43.4429C96.4307 43.6248 96.0241 43.7157 95.5554 43.7157C95.2826 43.7157 95.0296 43.6854 94.7949 43.6248L94.3748 44.0448C94.5038 44.1125 94.6779 44.1689 94.8971 44.214C95.1163 44.2598 95.4722 44.3049 95.9642 44.35C96.7134 44.4191 97.2575 44.5967 97.5979 44.8843C97.9383 45.1718 98.1089 45.5686 98.1089 46.0754C98.1089 46.4081 98.018 46.7252 97.8361 47.0234C97.6543 47.3222 97.3745 47.5646 96.9967 47.7493C96.6182 47.9347 96.134 48.027 95.5441 48.027C94.742 48.027 94.0957 47.8783 93.6031 47.5794C93.1118 47.2813 92.8665 46.8324 92.8665 46.2347C92.8665 45.7279 93.1118 45.2888 93.6031 44.9188C93.4522 44.8497 93.3218 44.7785 93.2119 44.7024C93.1019 44.627 93.0061 44.5474 92.9229 44.4649V44.2027L93.9097 43.1596C93.4713 42.7727 93.2514 42.2786 93.2514 41.6732C93.2514 41.294 93.3444 40.95 93.5298 40.6406C93.7151 40.3291 93.978 40.0845 94.3184 39.9027ZM103.091 43.8451C102.811 44.1299 102.482 44.2715 102.104 44.2715C101.725 44.2715 101.398 44.1299 101.122 43.8451C100.845 43.5618 100.708 43.1403 100.708 42.58C100.708 42.0211 100.845 41.5982 101.122 41.3149C101.398 41.0316 101.729 40.8899 102.115 40.8899C102.486 40.8899 102.811 41.0316 103.091 41.3149C103.371 41.5982 103.511 42.0211 103.511 42.58C103.511 43.1403 103.371 43.5618 103.091 43.8451ZM103.573 40.0046C103.138 39.7551 102.652 39.6304 102.114 39.6304C101.57 39.6304 101.08 39.7551 100.645 40.0046C100.21 40.2534 99.864 40.6002 99.6068 41.0421C99.3495 41.4854 99.2212 41.9978 99.2212 42.58C99.2212 43.1636 99.3474 43.676 99.6011 44.1179C99.8542 44.5612 100.198 44.9065 100.634 45.1567C101.069 45.4063 101.558 45.5317 102.104 45.5317C102.64 45.5317 103.129 45.4063 103.568 45.1567C104.006 44.9065 104.352 44.5612 104.605 44.1179C104.859 43.676 104.986 43.1636 104.986 42.58C104.986 41.9978 104.859 41.4854 104.605 41.0421C104.352 40.6002 104.008 40.2534 103.573 40.0046Z" fill="#9A9AB0"/>
</svg>
