<svg width="115" height="71" viewBox="0 0 115 71" fill="none" xmlns="http://www.w3.org/2000/svg">
<path fill-rule="evenodd" clip-rule="evenodd" d="M47.9004 21.6636L39.9192 35.4863L47.9004 49.3082H63.86L71.8412 35.4863L63.86 21.6636H47.9004ZM48.6279 35.4862L52.2549 29.205H59.5059L63.1328 35.4862L59.5059 41.7668H52.2549L48.6279 35.4862ZM13.2219 29.7271V31.2798H15.1305V41.245H16.7812V31.2798H18.6905V29.7271H13.2219ZM24.4989 41.2454H19.5801V29.7267H24.4989V31.2794H21.2307V34.6611H24.0774V36.2138H21.2307V39.5954H24.4989V41.2454ZM31.0991 29.727H29.3512L28.0896 33.1404L26.8442 29.727H25.097L27.2488 35.2111L24.918 41.2456H26.6666L28.0896 37.3629L29.5295 41.2456H31.2767L28.898 35.2111L31.0991 29.727ZM33.2659 31.2798H31.3566V29.7271H36.8259V31.2798H34.9165V41.2457H33.2659V31.2798ZM77.3176 29.727H75.6669V41.2456H80.5858V39.5957H77.3176V29.727ZM92.5332 29.8078C92.8616 29.9269 93.1605 30.0989 93.4304 30.3251C93.6891 30.5626 93.8998 30.8594 94.0612 31.2153C94.2233 31.5712 94.3044 31.9814 94.3044 32.4445V33.0274H92.6537V32.4445C92.6537 32.0456 92.5438 31.7517 92.3224 31.5628C92.1004 31.3739 91.839 31.2794 91.5373 31.2794C91.2363 31.2794 90.9749 31.3739 90.7528 31.5628C90.5315 31.7517 90.4209 32.0456 90.4209 32.4445V38.5277C90.4209 38.9266 90.5315 39.2205 90.7528 39.4094C90.9749 39.5983 91.2363 39.6927 91.5373 39.6927C91.839 39.6927 92.1004 39.5983 92.3224 39.4094C92.5438 39.2205 92.6537 38.9266 92.6537 38.5277V36.3604H91.3435V34.9035H94.3044V38.5277C94.3044 39.0126 94.2233 39.4284 94.0612 39.773C93.8998 40.1191 93.6891 40.4045 93.4304 40.6308C93.1605 40.8683 92.8616 41.0459 92.5332 41.1643C92.204 41.2834 91.8721 41.3426 91.5373 41.3426C91.2032 41.3426 90.8713 41.2834 90.5421 41.1643C90.2137 41.0459 89.9205 40.8683 89.6611 40.6308C89.3919 40.4045 89.1755 40.1191 89.0141 39.773C88.852 39.4284 88.7709 39.0126 88.7709 38.5277V32.4445C88.7709 31.9814 88.852 31.5712 89.0141 31.2153C89.1755 30.8594 89.3919 30.5626 89.6611 30.3251C89.9205 30.0989 90.2137 29.9269 90.5421 29.8078C90.8713 29.6894 91.2032 29.6302 91.5373 29.6302C91.8721 29.6302 92.204 29.6894 92.5332 29.8078ZM85.6006 38.5275C85.6006 38.9264 85.4906 39.2203 85.2686 39.4092C85.0473 39.5988 84.7858 39.6925 84.4841 39.6925C84.1825 39.6925 83.921 39.5988 83.6997 39.4092C83.4777 39.2203 83.3677 38.9264 83.3677 38.5275V32.4443C83.3677 32.0461 83.4777 31.7522 83.6997 31.5626C83.921 31.3744 84.1825 31.28 84.4841 31.28C84.7858 31.28 85.0473 31.3744 85.2686 31.5626C85.4906 31.7522 85.6006 32.0461 85.6006 32.4443V38.5275ZM86.3772 30.3249C86.1072 30.0986 85.8084 29.9267 85.4792 29.8076C85.1501 29.6891 84.8188 29.6299 84.484 29.6299C84.1493 29.6299 83.818 29.6891 83.4889 29.8076C83.1597 29.9267 82.8665 30.0986 82.6079 30.3249C82.3379 30.5624 82.1215 30.8591 81.9608 31.2151C81.798 31.571 81.717 31.9812 81.717 32.4442V38.5274C81.717 39.0123 81.798 39.4282 81.9608 39.7735C82.1215 40.1189 82.3379 40.4043 82.6079 40.6305C82.8665 40.8681 83.1597 41.0457 83.4889 41.1641C83.818 41.2832 84.1493 41.3424 84.484 41.3424C84.8188 41.3424 85.1501 41.2832 85.4792 41.1641C85.8084 41.0457 86.1072 40.8681 86.3772 40.6305C86.6358 40.4043 86.8466 40.1189 87.0072 39.7735C87.1701 39.4282 87.2511 39.0123 87.2511 38.5274V32.4442C87.2511 31.9812 87.1701 31.571 87.0072 31.2151C86.8466 30.8591 86.6358 30.5624 86.3772 30.3249ZM99.3757 39.4092C99.5977 39.2203 99.7076 38.9264 99.7076 38.5275V32.4443C99.7076 32.0461 99.5977 31.7522 99.3757 31.5626C99.1543 31.3744 98.8929 31.28 98.5912 31.28C98.2896 31.28 98.0281 31.3744 97.8068 31.5626C97.5847 31.7522 97.4748 32.0461 97.4748 32.4443V38.5275C97.4748 38.9264 97.5847 39.2203 97.8068 39.4092C98.0281 39.5988 98.2896 39.6925 98.5912 39.6925C98.8929 39.6925 99.1543 39.5988 99.3757 39.4092ZM100.484 30.3249C100.743 30.5624 100.954 30.8591 101.114 31.2151C101.277 31.571 101.358 31.9812 101.358 32.4442V38.5274C101.358 39.0123 101.277 39.4282 101.114 39.7735C100.954 40.1189 100.743 40.4043 100.484 40.6305C100.214 40.8681 99.9154 41.0457 99.5863 41.1641C99.2571 41.2832 98.9259 41.3424 98.5911 41.3424C98.2563 41.3424 97.9251 41.2832 97.5959 41.1641C97.2668 41.0457 96.9736 40.8681 96.7149 40.6305C96.445 40.4043 96.2286 40.1189 96.0679 39.7735C95.9051 39.4282 95.824 39.0123 95.824 38.5274V32.4442C95.824 31.9812 95.9051 31.571 96.0679 31.2151C96.2286 30.8591 96.445 30.5624 96.7149 30.3249C96.9736 30.0986 97.2668 29.9267 97.5959 29.8076C97.9251 29.6891 98.2563 29.6299 98.5911 29.6299C98.9259 29.6299 99.2571 29.6891 99.5863 29.8076C99.9154 29.9267 100.214 30.0986 100.484 30.3249Z" fill="#9A9AB0"/>
</svg>
