<svg width="115" height="71" viewBox="0 0 115 71" fill="none" xmlns="http://www.w3.org/2000/svg">
<path fill-rule="evenodd" clip-rule="evenodd" d="M49.1048 14.6157V26.3556L37.3649 14.6157V45.2345H49.1048H67.9838H79.7237L49.1048 14.6157ZM40.6354 52.3096C41.0301 52.3096 41.3472 52.402 41.5869 52.5852C41.8265 52.7678 41.983 53.0208 42.0563 53.3415H43.2488C43.136 52.705 42.8527 52.2096 42.3988 51.8572C41.9449 51.5048 41.3628 51.3286 40.6523 51.3286C40.0546 51.3286 39.5415 51.4582 39.113 51.7176C38.6845 51.977 38.3546 52.3378 38.1235 52.8002C37.8923 53.2632 37.7767 53.7954 37.7767 54.3987C37.7767 55.002 37.8923 55.5334 38.1235 55.9937C38.3546 56.4532 38.6845 56.8112 39.113 57.0671C39.5415 57.3236 40.0546 57.4519 40.6523 57.4519C41.3628 57.4519 41.9449 57.2806 42.3988 56.936C42.8527 56.592 43.136 56.1156 43.2488 55.5066H42.0563C41.983 55.8118 41.8265 56.05 41.5869 56.222C41.3472 56.394 41.0301 56.4793 40.6354 56.4793C40.0885 56.4793 39.6599 56.2946 39.3498 55.9253C39.0397 55.556 38.8847 55.0478 38.8847 54.3987C38.8847 53.751 39.0397 53.24 39.3498 52.8678C39.6599 52.4964 40.0885 52.3096 40.6354 52.3096ZM49.9346 55.921C49.5991 56.2932 49.1495 56.4792 48.5856 56.4792C48.0218 56.4792 47.5707 56.2932 47.2324 55.921C46.8941 55.5496 46.7249 55.0386 46.7249 54.3902C46.7249 53.7418 46.8941 53.2322 47.2324 52.8594C47.5707 52.4872 48.0218 52.3011 48.5856 52.3011C49.1495 52.3011 49.5991 52.4872 49.9346 52.8594C50.2701 53.2322 50.4379 53.7418 50.4379 54.3902C50.4379 55.0386 50.2701 55.5496 49.9346 55.921ZM50.1334 51.7177C49.688 51.4583 49.1721 51.3286 48.5857 51.3286C47.9936 51.3286 47.4763 51.4583 47.0337 51.7177C46.5911 51.977 46.2443 52.3365 45.9934 52.796C45.7425 53.2563 45.617 53.7877 45.617 54.3903C45.617 54.9943 45.7425 55.525 45.9934 55.9846C46.2443 56.4441 46.5911 56.8042 47.0337 57.0629C47.4763 57.3223 47.9936 57.452 48.5857 57.452C49.1721 57.452 49.688 57.3223 50.1334 57.0629C50.5789 56.8042 50.9256 56.4441 51.1737 55.9846C51.4218 55.525 51.5459 54.9943 51.5459 54.3903C51.5459 53.7877 51.4218 53.2563 51.1737 52.796C50.9256 52.3365 50.5789 51.977 50.1334 51.7177ZM55.3937 51.4301L57.2805 55.1853L59.1404 51.4301H60.426V57.3504H59.3434V53.2654L57.6949 56.5047H56.8407L55.1907 53.2654V57.3504H54.1088V51.4301H55.3937ZM66.1221 53.9298C65.9558 54.0954 65.6838 54.1793 65.306 54.1793H64.265V52.3094H65.306C65.6838 52.3094 65.9558 52.3926 66.1221 52.5597C66.2878 52.726 66.3716 52.955 66.3716 53.2482C66.3716 53.5358 66.2878 53.7635 66.1221 53.9298ZM66.5487 51.6667C66.2393 51.5089 65.8467 51.4299 65.3738 51.4299H63.1833V57.351H64.2651V55.059H65.3738C65.8587 55.059 66.2555 54.9751 66.5663 54.8088C66.8757 54.6431 67.1048 54.4225 67.2514 54.1498C67.398 53.8763 67.4713 53.5761 67.4713 53.2483C67.4713 52.9051 67.3952 52.5943 67.2429 52.3187C67.0907 52.0417 66.8595 51.8253 66.5487 51.6667ZM71.6746 52.674L70.8204 55.1351H72.5373L71.6746 52.674ZM68.9091 57.351L71.0735 51.4299H72.2921L74.4573 57.351H73.3063L72.8327 55.9802H70.5245L70.0424 57.351H68.9091ZM80.69 55.5996L77.9074 51.43H76.8256V57.3504H77.9074V53.1892L80.69 57.3504H81.7726V51.43H80.69V55.5996ZM86.6102 54.1618L87.9134 51.43H89.1228L87.1437 55.2444V57.3504H86.0611V55.2444L84.0736 51.43H85.2999L86.6102 54.1618ZM26.4348 57.3511L28.6007 51.4301H29.8186L31.9837 57.3511H30.8335L30.3599 55.9803H28.0509L27.5688 57.3511H26.4348ZM30.0631 55.1353L29.2004 52.6741L28.3462 55.1353H30.0631Z" fill="#9A9AB0"/>
</svg>
