<svg width="115" height="71" viewBox="0 0 115 71" fill="none" xmlns="http://www.w3.org/2000/svg">
<path fill-rule="evenodd" clip-rule="evenodd" d="M36.2935 24.0585C36.8115 24.2453 37.283 24.5174 37.708 24.874C38.1154 25.2475 38.4467 25.7148 38.7018 26.2751C38.9562 26.8362 39.0838 27.4818 39.0838 28.2119V37.7931C39.0838 38.5578 38.9562 39.2118 38.7018 39.7553C38.4467 40.2994 38.1154 40.749 37.708 41.1057C37.283 41.4799 36.8115 41.7604 36.2935 41.9472C35.7755 42.1333 35.2532 42.227 34.7267 42.227C34.1995 42.227 33.6773 42.1333 33.1592 41.9472C32.6412 41.7604 32.1781 41.4799 31.7708 41.1057C31.3458 40.749 31.006 40.2994 30.7516 39.7553C30.4965 39.2118 30.3689 38.5578 30.3689 37.7931V28.2119C30.3689 27.4818 30.4965 26.8362 30.7516 26.2751C31.006 25.7148 31.3458 25.2475 31.7708 24.874C32.1781 24.5174 32.6412 24.2453 33.1592 24.0585C33.6773 23.8718 34.1995 23.778 34.7267 23.778C35.2532 23.778 35.7755 23.8718 36.2935 24.0585ZM28.1527 38.0225V36.9012H25.5534V37.7934C25.5534 38.1508 25.5026 38.4482 25.4004 38.685C25.2989 38.9232 25.1714 39.11 25.0184 39.246C24.8486 39.3821 24.6653 39.4793 24.4701 39.5385C24.2748 39.5984 24.0923 39.628 23.9224 39.628C23.3276 39.628 22.916 39.4497 22.6869 39.0931C22.4572 38.7365 22.3423 38.2953 22.3423 37.7681V28.4928C22.3423 27.8811 22.4487 27.3757 22.6608 26.9761C22.8737 26.5779 23.3022 26.3777 23.9478 26.3777C24.4405 26.3777 24.8309 26.5645 25.1199 26.938C25.4089 27.3123 25.5534 27.7535 25.5534 28.2631V29.13H28.1527V28.1108C28.1527 27.4821 28.0463 26.9 27.8341 26.365C27.6213 25.8294 27.3288 25.367 26.9552 24.9758C26.1905 24.1773 25.1967 23.7784 23.9732 23.7784C23.3445 23.7784 22.7715 23.8841 22.2535 24.097C21.7354 24.3098 21.2893 24.6023 20.9157 24.9758C20.5422 25.3501 20.2532 25.7913 20.0488 26.3009C19.8451 26.8112 19.7437 27.363 19.7437 27.9579V37.9464C19.7437 38.7788 19.8747 39.4624 20.1383 39.9981C20.4012 40.533 20.7374 40.9707 21.1448 41.3097C21.5529 41.6494 22.0117 41.8877 22.5213 42.0237C23.0309 42.159 23.5313 42.2274 24.0246 42.2274C24.6019 42.2274 25.1418 42.1132 25.6422 41.8834C26.1433 41.6537 26.581 41.3442 26.9552 40.9531C27.3288 40.5626 27.6213 40.1172 27.8341 39.6154C28.0463 39.115 28.1527 38.5835 28.1527 38.0225ZM47.5182 33.5382H47.4674L44.1288 23.931H41.6317V42.0741H44.231V31.0403H44.2817L46.831 38.8383H48.1307L50.7039 31.0403H50.7547V42.0741H53.3533V23.931H50.8315L47.5182 33.5382ZM25.6229 47.6414C25.7618 47.5582 25.8703 47.4391 25.9486 47.2819C26.0268 47.1254 26.0656 46.9401 26.0656 46.7237C26.0656 46.508 26.0268 46.322 25.9486 46.1662C25.8703 46.0097 25.7618 45.8906 25.6229 45.8075C25.4841 45.7243 25.3206 45.682 25.1331 45.682C24.9463 45.682 24.7821 45.7243 24.6412 45.8075C24.5009 45.8906 24.3924 46.0097 24.3155 46.1662C24.2394 46.322 24.2014 46.508 24.2014 46.7237C24.2014 46.9401 24.2394 47.1254 24.3155 47.2819C24.3924 47.4391 24.5009 47.5582 24.6412 47.6414C24.7821 47.7238 24.9463 47.7661 25.1331 47.7661C25.3206 47.7661 25.4841 47.7238 25.6229 47.6414ZM25.1333 45.3119C25.4039 45.3119 25.6407 45.3711 25.843 45.4909C26.0467 45.6107 26.2046 45.7757 26.3173 45.9885C26.4308 46.2006 26.4872 46.4459 26.4872 46.7236C26.4872 47.0027 26.4308 47.2473 26.3173 47.4601C26.2046 47.6716 26.0467 47.8372 25.843 47.9563C25.6407 48.0768 25.4039 48.1367 25.1333 48.1367C24.8633 48.1367 24.6258 48.0768 24.4228 47.9563C24.2198 47.8372 24.0613 47.6716 23.9471 47.4601C23.8329 47.2473 23.7758 47.0027 23.7758 46.7236C23.7758 46.4459 23.8329 46.2006 23.9471 45.9885C24.0613 45.7757 24.2198 45.6107 24.4228 45.4909C24.6258 45.3711 24.8633 45.3119 25.1333 45.3119ZM41.2099 47.6414C41.3488 47.5582 41.4573 47.4391 41.5355 47.2819C41.6138 47.1254 41.6532 46.9401 41.6532 46.7237C41.6532 46.508 41.6138 46.322 41.5355 46.1662C41.4573 46.0097 41.3488 45.8906 41.2099 45.8075C41.0711 45.7243 40.9076 45.682 40.7201 45.682C40.5333 45.682 40.3691 45.7243 40.2281 45.8075C40.0886 45.8906 39.98 46.0097 39.9025 46.1662C39.8264 46.322 39.7883 46.508 39.7883 46.7237C39.7883 46.9401 39.8264 47.1254 39.9025 47.2819C39.98 47.4391 40.0886 47.5582 40.2281 47.6414C40.3691 47.7238 40.5333 47.7661 40.7201 47.7661C40.9076 47.7661 41.0711 47.7238 41.2099 47.6414ZM40.7201 45.3119C40.9908 45.3119 41.2276 45.3711 41.4299 45.4909C41.6336 45.6107 41.7914 45.7757 41.9042 45.9885C42.0177 46.2006 42.0748 46.4459 42.0748 46.7236C42.0748 47.0027 42.0177 47.2473 41.9042 47.4601C41.7914 47.6716 41.6336 47.8372 41.4299 47.9563C41.2276 48.0768 40.9908 48.1367 40.7201 48.1367C40.4502 48.1367 40.2127 48.0768 40.0104 47.9563C39.8067 47.8372 39.6481 47.6716 39.5339 47.4601C39.4198 47.2473 39.3627 47.0027 39.3627 46.7236C39.3627 46.4459 39.4198 46.2006 39.5339 45.9885C39.6481 45.7757 39.8067 45.6107 40.0104 45.4909C40.2127 45.3711 40.4502 45.3119 40.7201 45.3119ZM69.1058 46.9268H69.8472C69.824 47.1819 69.7429 47.3856 69.6076 47.5393C69.4709 47.6929 69.2672 47.7697 68.9965 47.7697C68.7287 47.7697 68.5145 47.6788 68.3531 47.4963C68.1917 47.3144 68.1113 47.0607 68.1113 46.7358C68.1113 46.4109 68.1924 46.1557 68.3573 45.9711C68.5208 45.7864 68.7456 45.6941 69.0318 45.6941C69.2242 45.6941 69.3821 45.7357 69.5033 45.8195C69.6259 45.9027 69.7077 46.0169 69.7493 46.1628H70.2173C70.1545 45.8964 70.0199 45.6891 69.812 45.5376C69.6034 45.3868 69.3433 45.3121 69.0318 45.3121C68.7555 45.3121 68.5173 45.3727 68.3157 45.4925C68.1141 45.6144 67.9591 45.7815 67.8498 45.9943C67.7399 46.2072 67.6856 46.4539 67.6856 46.7316C67.6856 47.0135 67.7392 47.2587 67.8456 47.4702C67.952 47.6795 68.1014 47.8444 68.2946 47.9607C68.487 48.0784 68.7111 48.1369 68.9691 48.1369C69.1897 48.1369 69.3701 48.0975 69.5075 48.0192C69.6457 47.941 69.7598 47.8303 69.8515 47.688L69.886 48.0897H70.2645V46.6075H69.1058V46.9268ZM77.842 47.4148L76.4726 45.3589H76.0588V48.09H76.4726V46.0334L77.842 48.09H78.2557V45.3589H77.842V47.4148ZM74.3496 48.0901H74.7633V45.3589H74.3496V48.0901ZM81.2869 48.09H79.5503V45.3589H81.2869V45.6944H79.964V46.5451H81.1699V46.8721H79.964V47.7538H81.2869V48.09ZM85.9818 46.5289H84.6588V45.3589H84.2451V48.0901H84.6588V46.8679H85.9818V48.0901H86.3955V45.3589H85.9818V46.5289ZM89.4259 48.09H87.6893V45.3589H89.4259V45.6944H88.103V46.5451H89.3089V46.8721H88.103V47.7538H89.4259V48.09ZM91.576 46.677H91.0728V45.7058H91.5725C91.7656 45.7058 91.9037 45.7495 91.9897 45.8369C92.0757 45.9243 92.1194 46.0406 92.1194 46.1865C92.1194 46.3317 92.075 46.4501 91.9883 46.541C91.9009 46.6319 91.7642 46.677 91.576 46.677ZM92.4099 46.6346C92.5001 46.4964 92.5445 46.3428 92.5445 46.1743C92.5445 46.0221 92.51 45.8861 92.4423 45.762C92.3754 45.638 92.2711 45.5407 92.1329 45.4674C91.9934 45.3948 91.8158 45.3589 91.6001 45.3589H90.6592V48.09H91.0729V46.9891H91.5613L92.0913 48.09H92.572L91.9899 46.9306C92.1794 46.8714 92.3197 46.7727 92.4099 46.6346ZM95.5091 48.09H93.7725V45.3589H95.5091V45.6944H94.1862V46.5451H95.3921V46.8721H94.1862V47.7538H95.5091V48.09ZM71.509 45.3589H71.9228V47.7623H73.1639V48.09H71.509V45.3589ZM44.689 47.1766L43.7642 45.3589H43.2758V48.0901H43.6895V46.0764L44.5283 47.6996H44.8482L45.6834 46.0729V48.0901H46.0972V45.3589H45.6101L44.689 47.1766ZM48.3294 46.6503C48.5246 46.6503 48.6649 46.6073 48.7487 46.5234C48.8326 46.4382 48.8756 46.324 48.8756 46.1781C48.8756 46.0266 48.8326 45.9096 48.7487 45.825C48.6649 45.7404 48.5246 45.6981 48.3294 45.6981H47.8064V46.6503H48.3294ZM48.3492 45.359C48.562 45.359 48.7389 45.3935 48.8799 45.4654C49.0195 45.538 49.1245 45.6339 49.1935 45.7586C49.2626 45.882 49.2971 46.0215 49.2971 46.178C49.2971 46.326 49.264 46.4613 49.1978 46.5861C49.1308 46.7094 49.0279 46.8074 48.8877 46.88C48.7467 46.9519 48.567 46.9892 48.3492 46.9892H47.8065V48.0901H47.3928V45.359H48.3492ZM50.7445 47.0941L51.185 45.8502L51.6262 47.0941H50.7445ZM50.9625 45.3587L49.9567 48.0898H50.3937L50.627 47.4231H51.7434L51.9781 48.0898H52.4151L51.4157 45.3587H50.9625ZM53.9505 45.3589L55.3206 47.4148V45.3589H55.7344V48.09H55.3206L53.9505 46.0334V48.09H53.5375V45.3589H53.9505ZM57.9313 46.6769L57.2878 45.3589H56.8198L57.7255 47.0822V48.0901H58.1385V47.0822L59.035 45.3589H58.572L57.9313 46.6769ZM62.4845 45.694H61.6768V45.3585H63.7024V45.694H62.8982V48.0896H62.4845V45.694ZM65.1453 47.0941L65.5865 45.8502L66.0277 47.0941H65.1453ZM65.3636 45.3587L64.3572 48.0898H64.7942L65.0282 47.4231H66.1439L66.3786 48.0898H66.8155L65.8161 45.3587H65.3636ZM31.4492 46.677H31.9532C32.1406 46.677 32.2774 46.6319 32.3648 46.541C32.4522 46.4501 32.4959 46.3317 32.4959 46.1865C32.4959 46.0406 32.4529 45.9243 32.3669 45.8369C32.2809 45.7495 32.142 45.7058 31.9489 45.7058H31.4492V46.677ZM32.921 46.1743C32.921 46.3428 32.8766 46.4964 32.7864 46.6346C32.6962 46.7727 32.5566 46.8714 32.367 46.9306L32.9485 48.09H32.4685L31.9378 46.9891H31.4494V48.09H31.0356V45.3589H31.9766C32.1929 45.3589 32.3698 45.3948 32.5094 45.4674C32.6482 45.5407 32.7518 45.638 32.8195 45.762C32.8872 45.8861 32.921 46.0221 32.921 46.1743ZM37.0876 45.6823C37.2885 45.6823 37.4485 45.7289 37.5676 45.8233C37.6874 45.9163 37.765 46.0425 37.8023 46.2011H38.2618C38.2083 45.9199 38.0793 45.7014 37.8756 45.5456C37.6733 45.3898 37.4118 45.3123 37.0912 45.3123C36.8219 45.3123 36.5879 45.3715 36.3913 45.4913C36.1946 45.6105 36.0438 45.7761 35.9367 45.9889C35.8303 46.2004 35.7774 46.4471 35.7774 46.7276C35.7774 47.0067 35.8303 47.2519 35.9367 47.4634C36.0438 47.6748 36.1946 47.8405 36.3913 47.9582C36.5879 48.0766 36.8219 48.1365 37.0912 48.1365C37.4118 48.1365 37.6733 48.0596 37.8756 47.906C38.0793 47.7531 38.2083 47.5416 38.2618 47.2703H37.8023C37.765 47.4239 37.6874 47.5451 37.5676 47.6332C37.4485 47.722 37.2885 47.7657 37.0876 47.7657C36.8149 47.7657 36.5985 47.6727 36.4406 47.4888C36.282 47.3048 36.2031 47.0504 36.2031 46.7276C36.2031 46.4027 36.282 46.1468 36.4406 45.9614C36.5985 45.7754 36.8149 45.6823 37.0876 45.6823ZM29.3502 47.0679C29.3502 47.3068 29.2931 47.4823 29.1789 47.5937C29.0647 47.7065 28.9111 47.7622 28.7187 47.7622C28.5227 47.7622 28.3684 47.7065 28.2542 47.5937C28.14 47.4823 28.0822 47.3068 28.0822 47.0679V45.3588H27.6685V47.0637C27.6685 47.309 27.7157 47.5098 27.8074 47.6684C27.899 47.827 28.0244 47.9447 28.1816 48.0215C28.3388 48.0983 28.515 48.1371 28.7109 48.1371C28.9033 48.1371 29.0795 48.0983 29.2388 48.0215C29.3988 47.9447 29.5264 47.827 29.6222 47.6684C29.7174 47.5098 29.7639 47.309 29.7639 47.0637V45.3588H29.3502V47.0679ZM63.3177 25.2053C63.7596 25.681 64.0655 26.2378 64.2346 26.8742C64.4052 27.5114 64.4891 28.3741 64.4891 29.4609C64.4891 30.2763 64.4425 30.9642 64.3502 31.5252C64.2565 32.0856 64.057 32.6128 63.7511 33.1047C63.3952 33.6996 62.9188 34.1626 62.3239 34.4939C61.729 34.8244 60.9474 34.9908 59.9797 34.9908H58.6547V42.0741H56.0554V23.931H59.9536C60.6676 23.931 61.2956 24.0247 61.8397 24.2115C62.3831 24.3983 62.8758 24.7302 63.3177 25.2053ZM68.619 23.9311L64.5663 42.0742H67.165L67.9304 38.1759H71.4727L72.2367 42.0742H74.8354L70.7841 23.9311H68.619ZM82.7355 23.9311H85.3348V42.0742H82.8884L78.9133 31.168H78.8619V42.0742H76.2632V23.9311H78.7604L82.6847 34.8633H82.7355V23.9311ZM93.7689 23.9311L91.6792 31.142H91.6284L89.5387 23.9311H86.7871L90.3534 34.4038V42.0742H92.9528V34.4038L96.5205 23.9311H93.7689ZM21.2237 45.3589L21.8672 46.6769L22.5079 45.3589H22.9709L22.0744 47.0822V48.0901H21.6614V47.0822L20.7557 45.3589H21.2237Z" fill="#9A9AB0"/>
</svg>
