<svg width="135" height="56" viewBox="0 0 135 56" fill="none" xmlns="http://www.w3.org/2000/svg">
<g clip-path="url(#clip0_1401_2798)">
<path d="M0 24.3355V29.26C1.69031 29.2588 3.36427 29.5895 4.92608 30.2331C6.4879 30.8766 7.90692 31.8205 9.10195 33.0106C10.2967 34.2003 11.2442 35.6128 11.8902 37.1672C12.5363 38.7217 12.8683 40.3877 12.8672 42.07H17.8102C17.8057 37.3685 15.9279 32.8608 12.589 29.536C9.24998 26.2112 4.7225 24.3409 0 24.3355H0Z" fill="#11142D"/>
<path d="M24.7197 15.47H16.8862C20.849 17.9701 24.2069 21.3126 26.7187 25.2574V17.4587C26.7184 16.9311 26.5076 16.4253 26.1327 16.0524C25.7579 15.6795 25.2497 15.47 24.7197 15.47Z" fill="#11142D"/>
<path d="M4.92188 15.47H0V19.9038C5.90327 19.9099 11.563 22.2472 15.7373 26.4028C19.9116 30.5585 22.2595 36.193 22.2659 42.07H26.7188V37.17C25.712 31.7846 23.0906 26.8289 19.1999 22.9555C15.3091 19.082 10.3313 16.4723 4.92188 15.47Z" fill="#11142D"/>
<path d="M38.8341 18.3981H35.6968V34.1411H38.8341V18.3981Z" fill="#11142D"/>
<path d="M50.37 25.2189C49.8477 24.7462 49.2363 24.3815 48.5714 24.1458C47.143 23.6465 45.5863 23.6465 44.1579 24.1458C43.4926 24.3813 42.881 24.7461 42.3586 25.2189C41.8462 25.6892 41.4369 26.2597 41.1562 26.8947C40.8661 27.5875 40.7168 28.3306 40.7168 29.0812C40.7168 29.8317 40.8661 30.5748 41.1562 31.2676C41.4358 31.9045 41.8452 32.4765 42.3586 32.9476C42.8801 33.4208 43.4914 33.7854 44.1565 34.02C45.5847 34.5203 47.1417 34.5203 48.57 34.02C49.2353 33.7854 49.8468 33.4208 50.3686 32.9476C50.8817 32.4764 51.2911 31.9043 51.5709 31.2676C51.861 30.5748 52.0103 29.8317 52.0103 29.0812C52.0103 28.3306 51.861 27.5875 51.5709 26.8947C51.2905 26.2599 50.8817 25.6894 50.37 25.2189ZM48.2156 30.9351C47.7076 31.3907 47.048 31.6428 46.3643 31.6428C45.6805 31.6428 45.021 31.3907 44.5129 30.9351C44.0859 30.4103 43.8529 29.7555 43.8529 29.0801C43.8529 28.4047 44.0859 27.7499 44.5129 27.2251C45.021 26.7695 45.6805 26.5174 46.3643 26.5174C47.048 26.5174 47.7076 26.7695 48.2156 27.2251C48.6426 27.7499 48.8756 28.4047 48.8756 29.0801C48.8756 29.7555 48.6426 30.4103 48.2156 30.9351Z" fill="#11142D"/>
<path d="M61.633 25.354H61.5936C61.4485 25.1512 61.28 24.9661 61.0916 24.8024C60.8633 24.6014 60.6105 24.4297 60.3392 24.2914C59.6535 23.9411 58.8923 23.7626 58.1216 23.7713C57.4462 23.7595 56.7783 23.9134 56.1767 24.2193C55.6162 24.5083 55.1213 24.9088 54.7227 25.396C54.3162 25.8982 54.0044 26.4695 53.8023 27.0823C53.5874 27.7136 53.4779 28.3757 53.4782 29.0423C53.4702 29.7578 53.5907 30.469 53.8339 31.1423C54.0543 31.7568 54.3978 32.3202 54.8436 32.7985C55.2878 33.2665 55.8268 33.6352 56.4249 33.88C57.0753 34.1439 57.7723 34.2748 58.4746 34.265C58.994 34.2561 59.5075 34.1539 59.9905 33.9633C60.5321 33.7588 61.0013 33.4002 61.3398 32.9322H61.382V33.9122C61.3937 34.2391 61.3396 34.565 61.2229 34.8707C61.1061 35.1764 60.929 35.4558 60.7021 35.6923C60.4141 35.9459 60.0774 36.1388 59.7124 36.2591C59.3474 36.3794 58.9617 36.4247 58.5786 36.3923C57.9712 36.3991 57.3691 36.2784 56.8117 36.0381C56.257 35.7914 55.7395 35.4691 55.2739 35.0805L53.5379 37.66C54.2475 38.229 55.0769 38.6312 55.9644 38.8367C56.8426 39.0377 57.7408 39.1389 58.6419 39.1384C60.6219 39.1384 62.0964 38.6421 63.0653 37.6495C64.0342 36.6569 64.5189 35.2028 64.5193 33.2871V24.0212H61.6365L61.633 25.354ZM61.4446 29.9663C61.3208 30.2626 61.1394 30.5317 60.9109 30.758C60.6782 30.9888 60.4055 31.1757 60.1058 31.3096C59.7947 31.4472 59.458 31.5182 59.1176 31.5182C58.7771 31.5182 58.4405 31.4472 58.1293 31.3096C57.8337 31.1738 57.5645 30.9871 57.3341 30.758C57.1046 30.5298 56.9225 30.2587 56.7983 29.9603C56.674 29.662 56.6101 29.3422 56.6101 29.0192C56.6101 28.6962 56.674 28.3764 56.7983 28.0781C56.9225 27.7797 57.1046 27.5087 57.3341 27.2804C57.5646 27.0513 57.8338 26.8644 58.1293 26.7281C58.4406 26.591 58.7772 26.5202 59.1176 26.5202C59.4579 26.5202 59.7945 26.591 60.1058 26.7281C60.4053 26.8625 60.6781 27.0496 60.9109 27.2804C61.256 27.6258 61.4909 28.0651 61.5858 28.543C61.6808 29.0209 61.6316 29.5161 61.4446 29.9663Z" fill="#11142D"/>
<path d="M76.306 25.2189C75.7837 24.7462 75.1724 24.3815 74.5074 24.1458C73.079 23.6465 71.5223 23.6465 70.0939 24.1458C69.4287 24.3813 68.817 24.7461 68.2946 25.2189C67.7822 25.6892 67.3729 26.2597 67.0923 26.8947C66.8022 27.5875 66.6528 28.3306 66.6528 29.0812C66.6528 29.8317 66.8022 30.5748 67.0923 31.2676C67.3719 31.9045 67.7813 32.4765 68.2946 32.9476C68.8165 33.4209 69.4283 33.7855 70.0939 34.02C71.5222 34.5203 73.0791 34.5203 74.5074 34.02C75.1727 33.7854 75.7842 33.4208 76.306 32.9476C76.8193 32.4765 77.2288 31.9045 77.5084 31.2676C77.7984 30.5748 77.9478 29.8317 77.9478 29.0812C77.9478 28.3306 77.7984 27.5875 77.5084 26.8947C77.2277 26.2597 76.8184 25.6892 76.306 25.2189ZM74.1516 30.9351C73.6436 31.3907 72.9841 31.6428 72.3003 31.6428C71.6165 31.6428 70.957 31.3907 70.449 30.9351C70.022 30.4103 69.789 29.7555 69.789 29.0801C69.789 28.4047 70.022 27.7499 70.449 27.2251C70.957 26.7695 71.6165 26.5174 72.3003 26.5174C72.9841 26.5174 73.6436 26.7695 74.1516 27.2251C74.5786 27.7499 74.8116 28.4047 74.8116 29.0801C74.8116 29.7555 74.5786 30.4103 74.1516 30.9351Z" fill="#11142D"/>
<path d="M82.1096 24.0912H80.427V34.1411H82.1096V24.0912Z" fill="#11142D"/>
<path d="M81.2687 18.9378C81.1055 18.9347 80.9435 18.9656 80.793 19.0284C80.6425 19.0912 80.5069 19.1845 80.3947 19.3025C80.2236 19.4742 80.1074 19.6925 80.0608 19.9299C80.0141 20.1672 80.039 20.413 80.1325 20.6363C80.2259 20.8595 80.3836 21.0502 80.5857 21.1844C80.7879 21.3186 81.0254 21.3901 81.2683 21.3901C81.5112 21.3901 81.7487 21.3186 81.9509 21.1844C82.153 21.0502 82.3107 20.8595 82.4042 20.6363C82.4976 20.413 82.5225 20.1672 82.4759 19.9299C82.4292 19.6925 82.313 19.4742 82.1419 19.3025C82.03 19.1845 81.8944 19.0911 81.744 19.0283C81.5936 18.9655 81.4317 18.9346 81.2687 18.9378Z" fill="#11142D"/>
<path d="M94.5556 25.34C94.0823 24.8589 93.5129 24.4819 92.8843 24.2333C92.1943 23.9626 91.4581 23.8278 90.7165 23.8364C90.018 23.8284 89.3272 23.983 88.6993 24.2879C88.0808 24.5941 87.5334 25.0254 87.0919 25.5542H87.0469V24.0912H85.3665V39.0376H87.0469V32.3596H87.0898C87.447 32.9721 87.9676 33.4741 88.5938 33.81C89.3208 34.2153 90.1437 34.4193 90.9767 34.4008C91.6587 34.4051 92.3343 34.2698 92.9616 34.0032C93.5673 33.7474 94.114 33.3711 94.5682 32.8972C95.0295 32.4129 95.3922 31.8443 95.6363 31.2228C96.1538 29.8668 96.1538 28.369 95.6363 27.013C95.39 26.39 95.0228 25.8215 94.5556 25.34ZM93.9622 30.59C93.8053 31.0276 93.56 31.4285 93.2413 31.7679C92.9226 32.1073 92.5374 32.378 92.1094 32.5633C91.1632 32.9491 90.1025 32.9491 89.1563 32.5633C88.7277 32.378 88.342 32.1071 88.0229 31.7673C87.7038 31.4275 87.4583 31.0261 87.3015 30.5879C86.9712 29.6355 86.9712 28.6003 87.3015 27.6479C87.4583 27.2097 87.7038 26.8083 88.0229 26.4685C88.342 26.1287 88.7277 25.8578 89.1563 25.6725C90.1025 25.2867 91.1632 25.2867 92.1094 25.6725C92.538 25.8578 92.9238 26.1287 93.2428 26.4685C93.5619 26.8083 93.8074 27.2097 93.9643 27.6479C94.2945 28.6003 94.2945 29.6355 93.9643 30.5879L93.9622 30.59Z" fill="#11142D"/>
<path d="M104.5 29.12C104.18 28.882 103.824 28.6971 103.445 28.5726C103.029 28.4328 102.604 28.3215 102.173 28.2394C101.849 28.1844 101.529 28.1129 101.213 28.0252C100.931 27.949 100.657 27.8483 100.393 27.7242C100.182 27.6288 99.9906 27.4938 99.8304 27.3266C99.6941 27.1771 99.6209 26.9811 99.6258 26.7792C99.6225 26.5614 99.6865 26.3478 99.8093 26.1674C99.9302 25.9892 100.088 25.8391 100.273 25.7271C100.47 25.6083 100.685 25.5214 100.91 25.4695C101.14 25.4128 101.376 25.3839 101.613 25.3834C102.064 25.3694 102.509 25.4851 102.896 25.7166C103.245 25.9353 103.537 26.2332 103.748 26.586L105.15 25.6627C104.84 25.0524 104.335 24.5615 103.715 24.2662C103.091 23.9774 102.409 23.8308 101.72 23.8371C101.253 23.836 100.789 23.901 100.34 24.0303C99.9101 24.1524 99.5022 24.3414 99.1315 24.5903C98.777 24.8286 98.4819 25.1444 98.2688 25.5136C98.0481 25.9068 97.9365 26.3513 97.9453 26.8016C97.9277 27.2424 98.0282 27.6799 98.2364 28.0693C98.4264 28.395 98.6915 28.6709 99.0099 28.8743C99.3613 29.095 99.7425 29.2649 100.142 29.379C100.574 29.5078 101.027 29.6224 101.501 29.7227C101.775 29.7801 102.041 29.8445 102.299 29.9159C102.541 29.9806 102.774 30.0781 102.99 30.2057C103.18 30.318 103.345 30.4678 103.475 30.646C103.604 30.8433 103.668 31.0762 103.658 31.3117C103.666 31.5592 103.598 31.8032 103.464 32.0117C103.33 32.2093 103.153 32.3744 102.947 32.4947C102.723 32.6274 102.479 32.7221 102.224 32.7747C101.965 32.8313 101.701 32.8601 101.436 32.8608C100.912 32.881 100.393 32.7544 99.9373 32.4954C99.5183 32.2299 99.1496 31.893 98.8481 31.5L97.5122 32.5311C97.9258 33.1705 98.5128 33.6802 99.2053 34.0011C99.9151 34.2816 100.674 34.4168 101.438 34.3987C101.935 34.3991 102.431 34.3416 102.914 34.2272C103.375 34.1213 103.813 33.936 104.209 33.6798C104.587 33.4298 104.9 33.0939 105.123 32.6998C105.364 32.2525 105.484 31.75 105.469 31.2424C105.482 30.806 105.394 30.3725 105.21 29.9761C105.043 29.64 104.8 29.347 104.5 29.12Z" fill="#11142D"/>
<path d="M116.622 31.7576V24.0912H114.939V28.9912C114.945 29.5195 114.883 30.0463 114.756 30.5592C114.648 30.9989 114.457 31.4141 114.193 31.7828C113.943 32.1256 113.609 32.399 113.222 32.5773C112.778 32.7737 112.296 32.8694 111.81 32.8573C111.481 32.8838 111.151 32.8312 110.847 32.7042C110.543 32.5771 110.274 32.3793 110.062 32.1272C109.658 31.5417 109.46 30.8394 109.5 30.1301V24.0912H107.817V30.2974C107.812 30.86 107.888 31.4204 108.044 31.9613C108.179 32.4409 108.419 32.8847 108.747 33.2612C109.075 33.6292 109.484 33.9167 109.942 34.1012C110.488 34.3134 111.071 34.4157 111.657 34.4022C112.051 34.4054 112.444 34.3509 112.822 34.2405C113.164 34.1415 113.49 33.9972 113.793 33.8114C114.068 33.6426 114.318 33.4368 114.536 33.1996C114.733 32.9886 114.897 32.7496 115.022 32.4905H115.065C115.065 32.7775 115.072 33.0575 115.087 33.3305C115.102 33.6035 115.109 33.8756 115.108 34.1467H116.705C116.705 33.8168 116.69 33.4516 116.661 33.0512C116.632 32.6508 116.619 32.2196 116.622 31.7576Z" fill="#11142D"/>
<path d="M134.806 26.2927C134.694 25.8064 134.472 25.3517 134.158 24.9627C133.842 24.5863 133.433 24.2971 132.972 24.1227C132.392 23.9141 131.777 23.8158 131.16 23.8329C130.49 23.8038 129.828 23.9799 129.262 24.3376C128.737 24.7123 128.297 25.1914 127.968 25.7446C127.882 25.5724 127.77 25.3755 127.633 25.1538C127.481 24.9145 127.287 24.7036 127.062 24.5308C126.785 24.321 126.476 24.1557 126.148 24.0408C125.706 23.8931 125.243 23.8239 124.777 23.8364C124.383 23.8332 123.991 23.8877 123.613 23.9981C123.271 24.0971 122.945 24.2414 122.642 24.4272C122.367 24.5962 122.117 24.802 121.898 25.039C121.702 25.25 121.538 25.489 121.413 25.7481H121.369C121.369 25.4611 121.362 25.1825 121.348 24.9081C121.334 24.6337 121.326 24.3642 121.326 24.0919H119.73C119.73 24.4218 119.745 24.787 119.773 25.1874C119.802 25.5878 119.816 26.0174 119.816 26.4761V34.1418H121.5V29.246C121.495 28.7175 121.556 28.1904 121.684 27.6773C121.791 27.2375 121.982 26.8221 122.246 26.4537C122.496 26.1108 122.83 25.8373 123.216 25.6592C123.661 25.4627 124.143 25.367 124.63 25.3792C124.918 25.3547 125.207 25.4066 125.468 25.5295C125.73 25.6525 125.954 25.8421 126.117 26.0792C126.479 26.8157 126.635 27.6351 126.571 28.4522V34.1432H128.25V28.343C128.245 27.9297 128.315 27.5188 128.455 27.1299C128.58 26.7851 128.771 26.4679 129.018 26.1961C129.251 25.9416 129.533 25.737 129.848 25.5948C130.167 25.4513 130.513 25.378 130.862 25.3799C131.278 25.3649 131.691 25.4456 132.07 25.6158C132.369 25.7595 132.628 25.9736 132.825 26.2395C133.014 26.5027 133.147 26.8024 133.213 27.1194C133.285 27.4511 133.321 27.7895 133.321 28.1288V34.1418H135V28.0427C135.006 27.4537 134.941 26.8661 134.806 26.2927Z" fill="#11142D"/>
</g>
<defs>
<clipPath id="clip0_1401_2798">
<rect width="135" height="56" fill="white"/>
</clipPath>
</defs>
</svg>
