<svg width="136" height="28" viewBox="0 0 136 28" fill="none" xmlns="http://www.w3.org/2000/svg">
<path d="M0 9.33594V14.2604C1.69536 14.2593 3.37431 14.5899 4.94079 15.2335C6.50727 15.8771 7.93052 16.8209 9.12912 18.011C10.3274 19.2007 11.2777 20.6132 11.9257 22.1677C12.5737 23.7221 12.9067 25.3881 12.9056 27.0704H17.8633C17.8588 22.3689 15.9755 17.8612 12.6265 14.5364C9.27759 11.2116 4.7366 9.34131 0 9.33594H0Z" fill="white"/>
<path d="M24.7934 0.470215H16.9365C20.9112 2.97036 24.279 6.31277 26.7984 10.2576V2.45891C26.798 1.93135 26.5866 1.42552 26.2106 1.05261C25.8347 0.679693 25.3249 0.470215 24.7934 0.470215Z" fill="white"/>
<path d="M4.93657 0.470215H0V4.90401C5.92089 4.91013 11.5975 7.24743 15.7843 11.4031C19.9711 15.5587 22.326 21.1932 22.3323 27.0702H26.7985V22.1702C25.7887 16.7848 23.1596 11.8291 19.2572 7.95566C15.3548 4.0822 10.3622 1.47253 4.93657 0.470215Z" fill="white"/>
<path d="M38.9502 3.39844H35.8035V19.1414H38.9502V3.39844Z" fill="white"/>
<path d="M50.5201 10.2191C49.9963 9.74643 49.3831 9.38168 48.7162 9.146C47.2835 8.64665 45.7222 8.64665 44.2895 9.146C43.6222 9.38151 43.0088 9.74628 42.4848 10.2191C41.9709 10.6894 41.5604 11.2599 41.2789 11.8949C40.9879 12.5877 40.8381 13.3308 40.8381 14.0813C40.8381 14.8319 40.9879 15.575 41.2789 16.2678C41.5593 16.9046 41.97 17.4767 42.4848 17.9478C43.0079 18.421 43.621 18.7856 44.2881 19.0202C45.7206 19.5204 47.2822 19.5204 48.7148 19.0202C49.382 18.7856 49.9954 18.421 50.5187 17.9478C51.0333 17.4765 51.444 16.9045 51.7246 16.2678C52.0156 15.575 52.1654 14.8319 52.1654 14.0813C52.1654 13.3308 52.0156 12.5877 51.7246 11.8949C51.4434 11.2601 51.0334 10.6896 50.5201 10.2191ZM48.3593 15.9353C47.8498 16.3909 47.1883 16.643 46.5025 16.643C45.8167 16.643 45.1552 16.3909 44.6456 15.9353C44.2173 15.4105 43.9836 14.7557 43.9836 14.0803C43.9836 13.4049 44.2173 12.7501 44.6456 12.2253C45.1552 11.7697 45.8167 11.5176 46.5025 11.5176C47.1883 11.5176 47.8498 11.7697 48.3593 12.2253C48.7876 12.7501 49.0213 13.4049 49.0213 14.0803C49.0213 14.7557 48.7876 15.4105 48.3593 15.9353Z" fill="white"/>
<path d="M61.8172 10.3543H61.7778C61.6322 10.1515 61.4632 9.96641 61.2742 9.80272C61.0453 9.60168 60.7917 9.43 60.5196 9.29172C59.8318 8.94143 59.0684 8.7629 58.2954 8.77162C57.618 8.75985 56.9481 8.91371 56.3447 9.21962C55.7825 9.50858 55.2861 9.90909 54.8863 10.3963C54.4786 10.8985 54.1658 11.4698 53.9632 12.0826C53.7477 12.7139 53.6378 13.376 53.6381 14.0426C53.6301 14.7581 53.751 15.4693 53.9949 16.1426C54.2159 16.7571 54.5605 17.3206 55.0076 17.7988C55.4531 18.2668 55.9937 18.6355 56.5937 18.8803C57.246 19.1442 57.9451 19.2751 58.6494 19.2653C59.1704 19.2564 59.6854 19.1542 60.1698 18.9636C60.7131 18.7591 61.1837 18.4005 61.5232 17.9325H61.5655V18.9125C61.5773 19.2394 61.523 19.5653 61.4059 19.871C61.2888 20.1768 61.1112 20.4561 60.8835 20.6926C60.5947 20.9463 60.257 21.1391 59.891 21.2594C59.5249 21.3797 59.138 21.425 58.7538 21.3926C58.1445 21.3994 57.5407 21.2787 56.9815 21.0384C56.4252 20.7917 55.9061 20.4694 55.4392 20.0808L53.698 22.6603C54.4097 23.2293 55.2416 23.6316 56.1317 23.837C57.0125 24.0381 57.9135 24.1393 58.8172 24.1387C60.8031 24.1387 62.282 23.6424 63.2538 22.6498C64.2256 21.6572 64.7117 20.2031 64.7122 18.2874V9.02153H61.8208L61.8172 10.3543ZM61.6283 14.9666C61.5041 15.2629 61.3222 15.532 61.093 15.7583C60.8596 15.9891 60.5861 16.176 60.2855 16.3099C59.9734 16.4475 59.6358 16.5186 59.2943 16.5186C58.9529 16.5186 58.6152 16.4475 58.3031 16.3099C58.0066 16.1741 57.7366 15.9874 57.5055 15.7583C57.2753 15.5301 57.0927 15.259 56.9681 14.9607C56.8435 14.6623 56.7793 14.3425 56.7793 14.0195C56.7793 13.6966 56.8435 13.3767 56.9681 13.0784C57.0927 12.78 57.2753 12.509 57.5055 12.2807C57.7367 12.0516 58.0067 11.8647 58.3031 11.7284C58.6153 11.5913 58.9529 11.5205 59.2943 11.5205C59.6357 11.5205 59.9733 11.5913 60.2855 11.7284C60.5859 11.8628 60.8595 12.0499 61.093 12.2807C61.4392 12.6261 61.6747 13.0654 61.7699 13.5433C61.8652 14.0212 61.8159 14.5164 61.6283 14.9666Z" fill="white"/>
<path d="M76.5338 10.2191C76.0099 9.74643 75.3968 9.38168 74.7298 9.146C73.2972 8.64665 71.7358 8.64665 70.3031 9.146C69.6359 9.38151 69.0225 9.74628 68.4985 10.2191C67.9846 10.6894 67.574 11.2599 67.2925 11.8949C67.0016 12.5877 66.8518 13.3308 66.8518 14.0813C66.8518 14.8319 67.0016 15.575 67.2925 16.2678C67.573 16.9046 67.9836 17.4767 68.4985 17.9478C69.022 18.4211 69.6356 18.7857 70.3031 19.0202C71.7357 19.5204 73.2973 19.5204 74.7298 19.0202C75.3971 18.7856 76.0104 18.421 76.5338 17.9478C77.0486 17.4767 77.4593 16.9046 77.7397 16.2678C78.0307 15.575 78.1805 14.8319 78.1805 14.0813C78.1805 13.3308 78.0307 12.5877 77.7397 11.8949C77.4582 11.2599 77.0477 10.6894 76.5338 10.2191ZM74.373 15.9353C73.8634 16.3909 73.2019 16.643 72.5161 16.643C71.8303 16.643 71.1688 16.3909 70.6593 15.9353C70.231 15.4105 69.9973 14.7557 69.9973 14.0803C69.9973 13.4049 70.231 12.7501 70.6593 12.2253C71.1688 11.7697 71.8303 11.5176 72.5161 11.5176C73.2019 11.5176 73.8634 11.7697 74.373 12.2253C74.8013 12.7501 75.035 13.4049 75.035 14.0803C75.035 14.7557 74.8013 15.4105 74.373 15.9353Z" fill="white"/>
<path d="M82.3548 9.09131H80.6672V19.1412H82.3548V9.09131Z" fill="white"/>
<path d="M81.5114 3.93821C81.3477 3.93512 81.1852 3.96597 81.0343 4.02876C80.8833 4.09156 80.7473 4.18493 80.6348 4.30291C80.4632 4.47463 80.3466 4.69291 80.2998 4.93026C80.253 5.16762 80.2781 5.41341 80.3718 5.63666C80.4655 5.85991 80.6237 6.05064 80.8264 6.1848C81.0291 6.31896 81.2673 6.39055 81.511 6.39055C81.7547 6.39055 81.9929 6.31896 82.1956 6.1848C82.3983 6.05064 82.5565 5.85991 82.6502 5.63666C82.7439 5.41341 82.769 5.16762 82.7222 4.93026C82.6754 4.69291 82.5588 4.47463 82.3872 4.30291C82.2749 4.18488 82.139 4.09147 81.9881 4.02866C81.8373 3.96586 81.6749 3.93505 81.5114 3.93821Z" fill="white"/>
<path d="M94.8379 10.3404C94.3632 9.85932 93.7921 9.48232 93.1616 9.23372C92.4696 8.96297 91.7312 8.82817 90.9874 8.83682C90.2867 8.82883 89.5939 8.98344 88.9641 9.28832C88.3438 9.5945 87.7947 10.0258 87.352 10.5546H87.3068V9.09162H85.6213V24.038H87.3068V17.36H87.3498C87.7081 17.9725 88.2302 18.4745 88.8583 18.8104C89.5875 19.2157 90.4128 19.4197 91.2483 19.4012C91.9324 19.4055 92.61 19.2702 93.2392 19.0036C93.8467 18.7478 94.395 18.3715 94.8506 17.8976C95.3132 17.4134 95.677 16.8448 95.9218 16.2232C96.4409 14.8672 96.4409 13.3694 95.9218 12.0134C95.6749 11.3904 95.3065 10.8219 94.8379 10.3404ZM94.2427 15.5904C94.0854 16.028 93.8393 16.4289 93.5197 16.7683C93.2001 17.1077 92.8137 17.3785 92.3844 17.5637C91.4354 17.9495 90.3716 17.9495 89.4225 17.5637C88.9926 17.3785 88.6057 17.1075 88.2857 16.7677C87.9657 16.4279 87.7194 16.0265 87.5621 15.5883C87.2308 14.6359 87.2308 13.6007 87.5621 12.6483C87.7194 12.2102 87.9657 11.8087 88.2857 11.4689C88.6057 11.1291 88.9926 10.8582 89.4225 10.6729C90.3716 10.2871 91.4354 10.2871 92.3844 10.6729C92.8143 10.8582 93.2012 11.1291 93.5212 11.4689C93.8412 11.8087 94.0875 12.2102 94.2448 12.6483C94.5761 13.6007 94.5761 14.6359 94.2448 15.5883L94.2427 15.5904Z" fill="white"/>
<path d="M104.812 14.1205C104.491 13.8825 104.134 13.6976 103.754 13.5731C103.337 13.4333 102.91 13.322 102.477 13.2399C102.153 13.1849 101.832 13.1134 101.515 13.0257C101.232 12.9495 100.957 12.8488 100.693 12.7247C100.481 12.6292 100.289 12.4943 100.128 12.3271C99.9916 12.1776 99.9182 11.9816 99.9231 11.7797C99.9198 11.5619 99.9841 11.3483 100.107 11.1679C100.228 10.9897 100.387 10.8396 100.572 10.7276C100.77 10.6088 100.986 10.5219 101.211 10.47C101.442 10.4133 101.678 10.3844 101.916 10.3839C102.368 10.3699 102.815 10.4856 103.203 10.7171C103.553 10.9358 103.846 11.2337 104.058 11.5865L105.464 10.6632C105.152 10.0529 104.646 9.56197 104.025 9.2667C103.398 8.97785 102.715 8.83127 102.024 8.8376C101.556 8.83649 101.09 8.90154 100.64 9.0308C100.208 9.15287 99.7992 9.34188 99.4273 9.5908C99.0718 9.82906 98.7758 10.1449 98.562 10.5141C98.3407 10.9073 98.2287 11.3518 98.2376 11.8021C98.22 12.2429 98.3208 12.6804 98.5296 13.0698C98.7201 13.3955 98.986 13.6714 99.3053 13.8748C99.6579 14.0955 100.04 14.2654 100.441 14.3795C100.874 14.5083 101.328 14.6229 101.804 14.7232C102.079 14.7806 102.345 14.845 102.604 14.9164C102.847 14.9811 103.08 15.0786 103.297 15.2062C103.488 15.3185 103.653 15.4683 103.784 15.6465C103.914 15.8438 103.978 16.0766 103.968 16.3122C103.975 16.5597 103.907 16.8037 103.773 17.0122C103.639 17.2098 103.461 17.3749 103.254 17.4952C103.03 17.6279 102.785 17.7226 102.529 17.7752C102.269 17.8318 102.005 17.8606 101.739 17.8613C101.213 17.8815 100.692 17.7549 100.236 17.4959C99.8153 17.2304 99.4455 16.8935 99.1431 16.5005L97.8032 17.5316C98.218 18.171 98.8068 18.6806 99.5014 19.0016C100.213 19.2821 100.975 19.4173 101.74 19.3992C102.239 19.3996 102.736 19.3421 103.221 19.2277C103.683 19.1218 104.122 18.9365 104.52 18.6803C104.899 18.4303 105.213 18.0944 105.437 17.7003C105.679 17.253 105.798 16.7505 105.784 16.2429C105.797 15.8065 105.708 15.373 105.524 14.9766C105.356 14.6405 105.112 14.3475 104.812 14.1205Z" fill="white"/>
<path d="M116.97 16.7577V9.09131H115.282V13.9913C115.288 14.5196 115.226 15.0464 115.098 15.5593C114.99 15.999 114.799 16.4142 114.534 16.7829C114.283 17.1257 113.948 17.3991 113.56 17.5774C113.115 17.7738 112.631 17.8695 112.143 17.8574C111.814 17.8839 111.483 17.8314 111.178 17.7043C110.873 17.5773 110.603 17.3794 110.391 17.1273C109.986 16.5418 109.787 15.8395 109.827 15.1302V9.09131H108.139V15.2975C108.134 15.8601 108.21 16.4205 108.366 16.9614C108.502 17.441 108.743 17.8849 109.071 18.2613C109.4 18.6293 109.811 18.9168 110.27 19.1013C110.818 19.3135 111.403 19.4158 111.99 19.4023C112.386 19.4055 112.78 19.351 113.159 19.2406C113.501 19.1416 113.829 18.9973 114.132 18.8115C114.408 18.6428 114.659 18.4369 114.878 18.1997C115.075 17.9887 115.24 17.7497 115.366 17.4906H115.409C115.409 17.7776 115.416 18.0576 115.43 18.3306C115.445 18.6036 115.452 18.8757 115.452 19.1468H117.053C117.053 18.8169 117.039 18.4517 117.009 18.0513C116.98 17.6509 116.967 17.2197 116.97 16.7577Z" fill="white"/>
<path d="M135.208 11.293C135.096 10.8067 134.874 10.352 134.559 9.96299C134.241 9.58658 133.832 9.29736 133.369 9.12298C132.787 8.91442 132.17 8.81612 131.552 8.83319C130.88 8.80406 130.215 8.98022 129.648 9.33789C129.122 9.71257 128.68 10.1917 128.35 10.7449C128.264 10.5727 128.152 10.3758 128.014 10.1541C127.861 9.91474 127.667 9.70387 127.441 9.53109C127.163 9.32133 126.854 9.156 126.524 9.04109C126.082 8.89341 125.616 8.82422 125.15 8.83668C124.755 8.83345 124.361 8.88794 123.982 8.99839C123.639 9.09739 123.312 9.24172 123.008 9.42749C122.732 9.59645 122.481 9.80232 122.262 10.0393C122.065 10.2503 121.901 10.4893 121.775 10.7484H121.732C121.732 10.4614 121.724 10.1828 121.71 9.90839C121.696 9.63399 121.688 9.36449 121.688 9.09219H120.088C120.088 9.42212 120.102 9.78728 120.131 10.1877C120.159 10.5881 120.174 11.0177 120.174 11.4764V19.1421H121.863V14.2463C121.857 13.7178 121.919 13.1907 122.047 12.6776C122.154 12.2377 122.346 11.8224 122.611 11.454C122.862 11.1111 123.197 10.8376 123.584 10.6595C124.03 10.4629 124.514 10.3673 125.002 10.3795C125.29 10.355 125.581 10.4069 125.843 10.5298C126.105 10.6528 126.33 10.8424 126.494 11.0795C126.856 11.816 127.013 12.6354 126.949 13.4525V19.1435H128.633V13.3433C128.628 12.93 128.698 12.5191 128.839 12.1302C128.964 11.7854 129.155 11.4682 129.403 11.1964C129.637 10.9419 129.92 10.7373 130.236 10.5951C130.555 10.4516 130.902 10.3783 131.253 10.3802C131.67 10.3652 132.084 10.4459 132.464 10.6161C132.764 10.7598 133.024 10.9739 133.221 11.2398C133.411 11.503 133.544 11.8027 133.611 12.1197C133.683 12.4514 133.719 12.7898 133.719 13.1291V19.1421H135.403V13.043C135.409 12.454 135.344 11.8664 135.208 11.293Z" fill="white"/>
</svg>
